<?xml version="1.0" encoding="UTF-8"?>
<svg width="103px" height="45px" viewBox="0 0 103 45" version="1.1" xmlns="http://www.w3.org/2000/svg" xmlns:xlink="http://www.w3.org/1999/xlink">
    <title>dimsum</title>
    <defs>
        <rect id="path-1" x="0" y="0" width="103" height="45"></rect>
        <rect id="path-3" x="0" y="0" width="103" height="45"></rect>
        <rect id="path-5" x="0" y="0" width="103" height="45"></rect>
        <rect id="path-7" x="0" y="0" width="103" height="45"></rect>
        <rect id="path-9" x="0" y="0" width="103" height="45"></rect>
        <rect id="path-11" x="0" y="0" width="103" height="45"></rect>
        <rect id="path-13" x="0" y="0" width="103" height="45"></rect>
        <rect id="path-15" x="0" y="0" width="103" height="45"></rect>
        <rect id="path-17" x="0" y="0" width="103" height="45"></rect>
    </defs>
    <g id="Page-1" stroke="none" stroke-width="1" fill="none" fill-rule="evenodd">
        <g id="dimsum">
            <g id="Path-Clipped">
                <mask id="mask-2" fill="white">
                    <use xlink:href="#path-1"></use>
                </mask>
                <g id="path-1"></g>
                <path d="M4.09542744,0 C2.8667992,0 1.84294235,1.02272727 1.84294235,2.45454545 L1.84294235,42.75 C1.84294235,43.9772727 2.8667992,45 4.09542744,45 L33.582505,45 C34.8111332,45 36.0397614,43.9772727 36.0397614,42.5454545 L36.0397614,2.45454545 C35.8349901,1.02272727 34.8111332,0 33.582505,0 L4.09542744,0 Z" id="Path" fill="#CD1719" fill-rule="nonzero" mask="url(#mask-2)"></path>
            </g>
            <g id="Shape-Clipped">
                <mask id="mask-4" fill="white">
                    <use xlink:href="#path-3"></use>
                </mask>
                <g id="path-3"></g>
                <path d="M8.80516899,16.3636364 C8.80516899,16.5681818 6.75745527,17.7954545 6.75745527,17.3863636 C6.75745527,16.7727273 6.5526839,12.2727273 6.34791252,12.2727273 C7.37176938,12.2727273 8.60039761,12.4772727 9.00994036,13.5 C9.21471173,14.5227273 9.4194831,15.3409091 8.80516899,16.3636364 M10.0337972,9.81818182 C8.60039761,9.20454545 4.91451292,8.59090909 3.68588469,10.2272727 C3.07157058,10.8409091 3.48111332,12.8863636 3.48111332,13.9090909 C3.48111332,15.3409091 3.48111332,16.7727273 3.68588469,18.2045455 C3.68588469,18.4090909 3.68588469,18.6136364 3.89065606,18.8181818 C4.09542744,19.8409091 4.70974155,20.4545455 5.73359841,20.6590909 C6.96222664,20.8636364 8.80516899,20.4545455 9.82902584,19.8409091 C10.8528827,19.0227273 12.4910537,16.7727273 12.2862823,14.3181818 C12.2862823,11.6590909 11.6719682,10.4318182 10.0337972,9.81818182" id="Shape" fill="#FFFFFF" fill-rule="nonzero" mask="url(#mask-4)"></path>
            </g>
            <g id="Path-Clipped">
                <mask id="mask-6" fill="white">
                    <use xlink:href="#path-5"></use>
                </mask>
                <g id="path-5"></g>
                <path d="M14.7435388,9.20454545 C14.7435388,8.38636364 15.5626243,7.77272727 16.5864811,7.56818182 C17.610338,7.56818182 18.6341948,7.97727273 18.6341948,8.79545455 C18.6341948,9.61363636 17.8151093,10.2272727 16.7912525,10.4318182 C15.7673956,10.6363636 14.9483101,10.0227273 14.7435388,9.20454545" id="Path" fill="#FFFFFF" fill-rule="nonzero" mask="url(#mask-6)"></path>
            </g>
            <g id="Path-Clipped">
                <mask id="mask-8" fill="white">
                    <use xlink:href="#path-7"></use>
                </mask>
                <g id="path-7"></g>
                <path d="M15.5626243,11.25 C15.5626243,11.25 14.333996,11.25 14.1292247,12.8863636 C13.9244533,14.7272727 14.1292247,18 14.1292247,19.0227273 C14.1292247,20.0454545 15.1530815,20.4545455 15.972167,20.6590909 C16.9960239,20.6590909 18.4294235,20.4545455 18.4294235,19.8409091 C18.6341948,19.4318182 18.4294235,16.3636364 18.4294235,14.7272727 C18.4294235,13.2954545 18.4294235,11.0454545 17.4055666,11.25 C16.5864811,11.4545455 15.5626243,11.25 15.5626243,11.25" id="Path" fill="#FFFFFF" fill-rule="nonzero" mask="url(#mask-8)"></path>
            </g>
            <g id="Path-Clipped">
                <mask id="mask-10" fill="white">
                    <use xlink:href="#path-9"></use>
                </mask>
                <g id="path-9"></g>
                <path d="M21.0914513,20.6590909 C20.8866799,20.4545455 20.6819085,20.25 20.4771372,19.8409091 C19.8628231,17.1818182 20.2723658,14.3181818 20.8866799,11.6590909 C21.0914513,10.8409091 21.7057654,9.61363636 22.5248509,9 C23.7534791,7.97727273 24.5725646,9.40909091 24.777336,10.6363636 C24.9821074,11.25 25.3916501,13.9090909 26.6202783,13.2954545 C28.2584493,12.6818182 27.6441352,9.81818182 29.2823062,9.20454545 C30.5109344,8.79545455 30.7157058,10.6363636 30.9204771,11.4545455 C31.3300199,12.6818182 31.7395626,14.1136364 32.3538767,15.3409091 C32.9681909,16.5681818 33.7872763,17.5909091 33.9920477,18.8181818 C34.1968191,20.0454545 33.3777336,20.6590909 32.1491054,20.6590909 C30.306163,20.4545455 30.1013917,18.6136364 29.8966203,17.1818182 C29.8966203,16.7727273 29.4870775,15.9545455 28.8727634,16.1590909 C27.8489066,16.5681818 27.6441352,18.2045455 27.2345924,19.0227273 C26.6202783,19.8409091 25.5964215,19.8409091 25.1868787,19.0227273 C24.777336,18.4090909 24.777336,17.5909091 24.3677932,16.9772727 C24.1630219,16.5681818 23.7534791,16.1590909 23.3439364,16.1590909 C22.9343936,16.1590909 22.5248509,16.5681818 22.3200795,16.9772727 C22.1153082,17.5909091 22.3200795,18 22.5248509,18.6136364 C22.7296223,19.2272727 22.9343936,20.4545455 22.5248509,20.8636364 C22.3200795,21.0681818 21.500994,21.0681818 21.0914513,20.6590909" id="Path" fill="#FFFFFF" fill-rule="nonzero" mask="url(#mask-10)"></path>
            </g>
            <g id="Shape-Clipped">
                <mask id="mask-12" fill="white">
                    <use xlink:href="#path-11"></use>
                </mask>
                <g id="path-11"></g>
                <path d="M93.7852883,22.9090909 C93.5805169,21.8863636 94.6043738,20.0454545 95.4234592,19.2272727 C95.4234592,19.2272727 95.6282306,19.2272727 95.6282306,19.4318182 C95.2186879,20.4545455 94.6043738,21.4772727 93.7852883,22.9090909 M67.7793241,23.9318182 L67.5745527,23.7272727 C68.1888668,22.5 69.0079523,21.2727273 70.2365805,20.8636364 L70.4413519,21.0681818 C69.6222664,21.8863636 68.8031809,22.9090909 67.7793241,23.9318182 M43.4115308,29.8636364 C43.2067594,30.0681818 42.7972167,30.0681818 42.387674,30.0681818 C42.387674,29.6590909 42.1829026,29.25 42.387674,28.8409091 C42.7972167,28.2272727 43.4115308,27.6136364 43.8210736,27 C44.640159,28.4318182 44.4353877,29.0454545 43.4115308,29.8636364 M102.385686,20.25 C102.180915,20.25 101.771372,20.4545455 101.5666,20.6590909 C101.361829,21.0681818 101.157058,21.6818182 101.157058,22.0909091 C100.337972,24.5454545 99.7236581,27 98.9045726,29.4545455 C98.6998012,29.8636364 98.0854871,30.4772727 97.8807157,30.4772727 C97.471173,30.2727273 96.8568588,29.8636364 96.6520875,29.4545455 C95.833002,27.8181818 95.2186879,26.3863636 94.6043738,24.75 C95.4234592,24.1363636 96.4473161,23.5227273 97.2664016,22.7045455 C98.2902584,21.6818182 98.6998012,20.4545455 98.4950298,19.0227273 C98.2902584,18 97.8807157,17.1818182 96.6520875,16.7727273 C95.4234592,16.3636364 94.6043738,16.9772727 93.9900596,17.7954545 C93.1709742,18.6136364 92.7614314,19.6363636 92.1471173,20.6590909 C92.1471173,20.6590909 91.9423459,20.6590909 91.9423459,20.4545455 C92.1471173,16.7727273 92.3518887,13.0909091 92.7614314,9.40909091 C92.9662028,7.36363636 92.9662028,7.56818182 91.3280318,6.75 C90.5089463,6.34090909 89.8946322,6.75 89.8946322,7.56818182 C89.6898608,8.38636364 89.4850895,9.40909091 89.4850895,10.2272727 C89.2803181,12.8863636 88.666004,15.5454545 88.666004,18.2045455 C88.666004,20.25 88.2564612,21.6818182 86.4135189,22.9090909 C84.5705765,24.3409091 82.7276342,25.7727273 80.4751491,26.1818182 C79.0417495,26.3863636 78.8369781,26.1818182 79.2465209,24.75 C80.0656064,22.5 81.2942346,20.6590909 83.3419483,19.4318182 C83.5467197,19.6363636 83.9562624,19.2272727 83.9562624,19.0227273 C83.9562624,17.7954545 81.9085487,16.7727273 80.6799205,17.3863636 C79.2465209,18.2045455 78.0178926,19.4318182 77.4035785,20.8636364 C76.1749503,23.5227273 74.9463221,25.9772727 73.5129225,28.6363636 C73.1033797,29.25 72.693837,29.8636364 72.2842942,30.4772727 C72.0795229,30.4772727 72.0795229,30.2727273 71.8747515,30.2727273 C71.8747515,29.6590909 71.8747515,29.25 72.0795229,28.6363636 C72.2842942,27.4090909 72.693837,26.3863636 72.8986083,25.1590909 C73.1033797,23.9318182 73.5129225,22.2954545 73.1033797,21.2727273 C72.693837,20.25 71.055666,19.6363636 70.0318091,18.8181818 C69.6222664,18.4090909 69.0079523,18.4090909 68.5984095,18.4090909 C66.7554672,18.6136364 65.7316103,19.6363636 64.9125249,21.2727273 C64.0934394,22.9090909 63.4791252,24.5454545 62.6600398,26.1818182 C62.250497,27.2045455 61.6361829,28.2272727 61.2266402,29.25 C61.0218688,29.25 61.0218688,29.25 60.8170974,29.0454545 C61.2266402,26.3863636 61.6361829,23.5227273 62.0457256,20.8636364 C62.250497,19.2272727 62.4552684,17.5909091 61.4314115,15.9545455 C60.2027833,13.9090909 58.359841,13.9090909 57.1312127,15.9545455 C56.5168986,16.9772727 55.9025845,18.2045455 55.2882704,19.4318182 C55.2882704,19.2272727 55.083499,19.2272727 55.083499,19.0227273 C54.6739563,18.2045455 53.6500994,17.5909091 52.8310139,17.7954545 C52.0119284,18 51.8071571,18.6136364 51.8071571,19.4318182 C51.8071571,20.0454545 51.8071571,20.6590909 51.8071571,21.4772727 C51.8071571,21.6818182 51.6023857,22.0909091 51.3976143,22.2954545 C49.3499006,23.1136364 47.3021869,23.7272727 45.0497018,24.5454545 C44.4353877,23.7272727 43.6163022,23.1136364 42.7972167,22.2954545 C42.387674,21.6818182 41.9781312,21.0681818 41.9781312,20.25 C41.5685885,18.2045455 44.4353877,15.5454545 46.27833,15.3409091 C47.5069583,15.1363636 48.1212724,15.75 47.7117296,16.9772727 C47.5069583,17.5909091 47.0974155,18.2045455 46.6878728,19.0227273 C46.4831014,19.2272727 46.4831014,19.6363636 46.27833,20.0454545 C46.6878728,20.0454545 47.0974155,20.25 47.5069583,20.25 C48.5308151,19.8409091 49.7594433,17.7954545 49.554672,16.7727273 C49.3499006,14.7272727 46.8926441,12.6818182 44.8449304,13.0909091 C41.7733598,13.5 40.1351889,15.3409091 39.111332,18 C38.2922465,20.25 39.111332,22.0909091 40.749503,23.5227273 C41.3638171,24.1363636 42.1829026,24.9545455 42.7972167,25.5681818 C43.2067594,25.9772727 43.4115308,26.3863636 42.7972167,26.7954545 C42.1829026,27.2045455 41.7733598,28.0227273 41.3638171,28.6363636 C40.3399602,30.4772727 41.1590457,31.9090909 43.2067594,31.9090909 C45.4592445,31.9090909 47.5069583,30.6818182 47.0974155,28.2272727 C47.0974155,27.6136364 46.6878728,27.2045455 46.4831014,26.5909091 C46.4831014,26.3863636 46.4831014,25.7727273 46.6878728,25.7727273 C48.5308151,24.9545455 50.1689861,24.3409091 52.0119284,23.5227273 C52.2166998,24.1363636 52.4214712,24.3409091 52.4214712,24.75 C52.6262425,25.7727273 53.2405567,26.1818182 54.2644135,26.1818182 C55.2882704,26.1818182 55.6978131,25.5681818 55.9025845,24.5454545 C56.3121272,23.3181818 56.5168986,22.2954545 56.9264414,21.2727273 C57.3359841,20.0454545 57.9502982,18.8181818 58.9741551,18 C58.7693837,20.0454545 58.5646123,22.0909091 58.359841,23.9318182 C57.9502982,26.1818182 57.7455268,28.2272727 58.1550696,30.4772727 C58.359841,31.2954545 58.5646123,32.3181818 59.5884692,32.5227273 C60.4075547,32.9318182 61.2266402,32.3181818 61.8409543,31.7045455 C62.4552684,31.0909091 62.8648111,30.4772727 63.2743539,29.8636364 C63.888668,28.8409091 64.2982107,27.6136364 64.9125249,26.3863636 C66.7554672,28.0227273 68.1888668,27 69.417495,25.7727273 C69.417495,27.2045455 69.2127237,28.4318182 69.2127237,29.6590909 C69.2127237,30.8863636 70.0318091,32.1136364 71.055666,32.5227273 C72.2842942,32.9318182 73.3081511,32.5227273 74.1272366,31.2954545 C75.1510934,29.8636364 75.9701789,28.2272727 76.7892644,26.5909091 C76.7892644,26.7954545 76.9940358,26.7954545 76.9940358,27 C77.6083499,28.6363636 79.0417495,29.4545455 81.0894632,28.6363636 C82.7276342,28.0227273 84.3658052,27 86.0039761,25.9772727 C87.027833,25.3636364 87.8469185,24.5454545 88.8707753,23.9318182 C89.2803181,25.7727273 89.6898608,27.6136364 90.304175,29.25 C90.304175,29.6590909 90.9184891,30.0681818 91.3280318,30.0681818 C91.9423459,30.0681818 92.55666,29.6590909 92.7614314,29.25 C92.9662028,29.0454545 92.9662028,28.4318182 93.1709742,27.8181818 C93.7852883,28.8409091 94.194831,29.8636364 95.0139165,30.6818182 C96.6520875,33.1363636 99.9284294,32.9318182 101.157058,30.2727273 C102.180915,28.0227273 102.795229,25.3636364 103.409543,22.9090909 C103.614314,22.2954545 103.614314,21.6818182 103.614314,21.2727273 C103,20.6590909 102.590457,20.25 102.385686,20.25" id="Shape" fill="#1D1D1B" fill-rule="nonzero" mask="url(#mask-12)"></path>
            </g>
            <g id="Path-Clipped">
                <mask id="mask-14" fill="white">
                    <use xlink:href="#path-13"></use>
                </mask>
                <g id="path-13"></g>
                <path d="M24.5725646,37.4318182 C24.3677932,37.2272727 24.1630219,36.8181818 23.9582505,36.6136364 C23.3439364,33.75 23.7534791,30.6818182 24.3677932,27.8181818 C24.5725646,26.7954545 25.1868787,25.5681818 26.0059642,24.75 C27.2345924,23.5227273 28.0536779,25.1590909 28.4632207,26.5909091 C28.667992,27.4090909 29.0775348,30.0681818 30.306163,29.4545455 C31.944334,28.6363636 31.3300199,25.5681818 32.9681909,24.9545455 C34.1968191,24.5454545 34.4015905,26.5909091 34.6063618,27.4090909 C35.0159046,28.8409091 35.4254473,30.2727273 36.0397614,31.5 C36.6540755,32.7272727 37.473161,33.9545455 37.6779324,35.3863636 C37.8827038,36.6136364 37.0636183,37.4318182 35.8349901,37.2272727 C33.9920477,37.0227273 33.7872763,35.1818182 33.582505,33.5454545 C33.582505,33.1363636 33.1729622,32.1136364 32.5586481,32.5227273 C31.5347913,32.9318182 31.3300199,34.7727273 30.9204771,35.5909091 C30.306163,36.4090909 29.2823062,36.4090909 28.8727634,35.5909091 C28.4632207,34.9772727 28.4632207,34.1590909 28.0536779,33.3409091 C27.8489066,32.9318182 27.4393638,32.5227273 27.0298211,32.5227273 C26.6202783,32.5227273 26.2107356,32.9318182 26.0059642,33.3409091 C25.8011928,33.9545455 26.0059642,34.5681818 26.2107356,35.1818182 C26.415507,35.7954545 26.6202783,37.0227273 26.2107356,37.6363636 C25.8011928,37.8409091 25.1868787,37.8409091 24.5725646,37.4318182" id="Path" fill="#FFFFFF" fill-rule="nonzero" mask="url(#mask-14)"></path>
            </g>
            <g id="Path-Clipped">
                <mask id="mask-16" fill="white">
                    <use xlink:href="#path-15"></use>
                </mask>
                <g id="path-15"></g>
                <path d="M0,33.75 C0,32.7272727 1.22862823,32.9318182 1.84294235,33.1363636 C2.66202783,33.5454545 3.48111332,33.9545455 4.30019881,33.9545455 C4.50497018,33.9545455 4.91451292,33.9545455 4.91451292,33.75 C5.11928429,33.5454545 4.70974155,33.1363636 4.70974155,32.9318182 C3.48111332,31.2954545 1.02385686,30.6818182 0.819085487,28.4318182 C0.409542744,26.1818182 2.04771372,24.3409091 4.09542744,24.1363636 C8.19085487,23.7272727 8.80516899,25.1590909 8.80516899,25.5681818 C8.80516899,25.9772727 8.80516899,27.4090909 8.19085487,27.2045455 C7.57654076,27 6.75745527,26.3863636 6.14314115,26.3863636 C5.52882704,26.3863636 5.11928429,26.7954545 5.11928429,27.6136364 C5.11928429,28.4318182 5.93836978,28.6363636 6.34791252,28.8409091 C7.16699801,29.25 7.9860835,29.6590909 8.80516899,30.4772727 C10.2385686,31.9090909 10.0337972,34.5681818 8.80516899,35.7954545 C7.37176938,37.2272727 5.32405567,37.4318182 3.48111332,37.0227273 C2.66202783,36.8181818 1.84294235,36.4090909 1.02385686,35.7954545 C0.614314115,35.5909091 0.409542744,35.1818182 0.204771372,34.7727273 C0.204771372,34.5681818 0,34.1590909 0,33.75" id="Path" fill="#FFFFFF" fill-rule="nonzero" mask="url(#mask-16)"></path>
            </g>
            <g id="Path-Clipped">
                <mask id="mask-18" fill="white">
                    <use xlink:href="#path-17"></use>
                </mask>
                <g id="path-17"></g>
                <path d="M13.3101392,24.75 C13.5149105,24.5454545 13.9244533,24.3409091 14.1292247,24.1363636 C14.7435388,23.9318182 16.9960239,24.75 16.7912525,25.7727273 C16.5864811,26.5909091 15.972167,27.4090909 15.5626243,28.0227273 C14.9483101,29.0454545 14.5387674,31.7045455 15.3578529,32.7272727 C16.3817097,34.1590909 18.2246521,32.1136364 18.6341948,30.8863636 C19.0437376,29.6590909 19.4532803,28.4318182 19.4532803,27.2045455 C19.4532803,26.3863636 19.2485089,24.9545455 19.8628231,24.3409091 C20.2723658,23.9318182 22.7296223,23.9318182 22.7296223,24.75 C22.7296223,28.8409091 21.7057654,36 16.9960239,37.2272727 C14.7435388,37.8409091 12.4910537,36.6136364 11.6719682,34.3636364 C10.6481113,31.7045455 11.8767396,28.2272727 12.2862823,27.2045455 C12.4910537,26.3863636 12.9005964,25.3636364 13.3101392,24.75" id="Path" fill="#FFFFFF" fill-rule="nonzero" mask="url(#mask-18)"></path>
            </g>
        </g>
    </g>
</svg>